<svg xmlns="http://www.w3.org/2000/svg" version="1.1" width="600px" height="600px" viewBox="0 0 200 200" style="overflow:hidden!important;"><g id="svga-group-wrapper"><g id="svga-group-backs-single"><path id="SvgjsPath4451" d="M0 0h200v200H0V0z" fill="#ecf0f1" stroke-width="none" opacity="1"></path></g><g id="svga-group-humanwrap-move" transform="matrix(1,0,0,1,0,0)"><g id="svga-group-humanwrap"><g id="svga-group-hair-back-move" transform="matrix(1,-1.3877787807814457e-16,1.3877787807814457e-16,1,-2.842170943040401e-14,0)"><g id="svga-group-hair-back"><path id="SvgjsPath7432" d="m59 111.1 1.9 33.8-7.8 27.9-11.3 16.3 115.8-.3-14.4-23.8-4.7-25.7L141 108l-68.2-2.8z" fill="#543c32" stroke-width="none" opacity="1" stroke="none"></path><path id="SvgjsPath7433" d="m60.1 114.7 3 17.2 1.8 17.1-1.1 17.8-2.5 13.2 6.4-15.5 1.3-27.4 3 22.8.7 19.2 2.5-19.9.7-15.7 1.8 16 .9 14.6 4.1-8.7 6.9-25.1 24.2-1.6 3.6 27.6 10.5 13.3-7.3-19.7-.4-14.1 4.1 13.7 9.3 20.1-3.6-13.3-1.6-9.1.7-17.6 3.6 17.4 5.7 16.2 7.3 12.1-6.6-17.4-3.6-30.3 2.2-19.4-56.1-3.7z" fill="#4c342a" stroke-width="none" opacity="1" stroke="none"></path></g></g><g id="svga-group-humanbody-back"><path id="SvgjsPath4518" d="m168.2 200-4.6-14.2-34.9-13.4-10.8-9.7-1.4-50.5h-33l-1.4 50.5-10.8 9.7-34.9 13.4-4.6 14.2-3 20h142.4z" fill="#f3d4cf" stroke-width="none" opacity="1" stroke="none"></path><path id="SvgjsPath4519" d="m83.5 112.2-1.4 50.5-10.8 9.7-34.9 13.4-4.6 14.2-3 20H39v-20l1.7-13.3 32.1-12.9 14.1-9.5 2-52.1z" fill="#d4958a" stroke-width="none" opacity="1" stroke="none"></path></g><g id="svga-group-chinshadow-single"><path id="SvgjsPath4727" d="m117.5 149.5-1-37.3h-33l-1.2 44c1.2 1.4 1.9 2.3 1.9 2.3 5.1 2.5 13 3.1 13 3.1s7.9-.6 13-3.1c.1-.1 3.2-3.8 7.3-9z" fill="#c5796d" stroke-width="none" opacity="1" stroke="none"></path></g><g id="svga-group-humanbody-front"></g><g id="svga-group-clothes-single"><path id="SvgjsPath7644" d="m168.9 200-3.2-16-35-11.4-6.8-4.8-.1-1.5-6-8.8v3.5l-.7 12.2-5.6 7.9-6.5 1.9-1.6 5.7-1.5 2.9-5.5-9.3-7.7-1.2-4.3-7.3-2.3-13.1.1-3.2-6 8.8-.1 1.5-6.9 4.8L34.3 184 31 200l-2.4 20h142.7z" fill="#140e3f" stroke-width="none" opacity="1" stroke="none"></path><path id="SvgjsPath7645" d="m43 200.7 2.6-10.8 24.2-9.6 5.1-3.2.3-2 8.3-5.7h.1l-1.4-8.7v-3.2l-6 8.8-.1 1.5-6.9 4.8L34.3 184 31 200l-2.4 20h14.2z" fill="#0b0630" stroke-width="none" opacity="1" stroke="none"></path><path id="SvgjsPath7646" d="m123.9 167.8 1.9 19.2.9 8.7-8.5-7.7-3.8-5.3-3.1-1.6 2.9 3.4-4.7 2.6-5.8 1.5 5.1-.6-6.3 11.8V220h1.2l-.6-19.8 5.7-12 .7-.1 5.1-2.8 3.1 4.5 9.7 8.1-1.2-12.4-2.3-17.7zm-24.1 29.7 2.1-5.9-2.5 5-4.4-8.7-9.1-3.4 2.8-3.3-3.1 1.6-3.8 5.3-8.5 7.7.9-8.7 1.9-19.2-2.5 17.7-1.2 12.4 9.7-8.1 3.3-4.9.4-.5 8.5 4.3 4.4 8.6-.9.7.8 21.9h1.1l-1-21 1.1-1.5zm7.6-12.8-1.1-.8-.7 1.4 1 1 .8-1.6zm-6.8 13.3 1 1 .7-1.7-1.1-.8-.6 1.5zm-.5 18.6 1 1 .7-1.7-1.1-.8-.6 1.5zm-53.7-28.3 4.9 17.2.9 14.5h1l-.8-14.6-6-17.1zm107.9 15.5-.9 16.2h1.4l.7-16 5.1-15.2-6.3 15z" fill="#050120" stroke-width="none" opacity="1" stroke="none"></path><path id="SvgjsPath7647" d="m119.6 162.5-.8-1.4v13l-3.9 8 3.5 4.6s1.7-11.1 1.7-11.8c0-.7-.5-12.4-.5-12.4zm-38.7.1.4-2.3-1.3 2.5.9 13.4 1.6 9.5 2.7-4.3-2.9-6.1-1.4-12.7z" fill="#20194e" stroke-width="none" opacity="1" stroke="none"></path></g><g id="svga-group-head" transform="matrix(1,-1.3877787807814457e-16,1.3877787807814457e-16,1,-2.842170943040401e-14,0)"><g id="svga-group-ears-left-move" transform="matrix(1,0,0,1,0,0)"><g id="svga-group-ears-left"><path id="SvgjsPath5681" d="m65.4 98.3-5.3-9.7-7-.9-2 7.2.4 8.9 7 11.4 6.1 4.5 3.8-11.6z" fill="#f3d4cf" stroke-width="none" opacity="1" stroke="none"></path><path id="SvgjsPath5682" d="m59.4 101.2-4.1-9.8-1.9 5.1.4 5 2.6 6.1-1.6-9.4 1.5-.7 1.3 10.8 2 2.1z" fill="#d4958a" stroke-width="none" opacity="1" stroke="none"></path><path id="SvgjsPath5683" d="m61.7 101-3.2-11.6-5.4-1.7 7 .9 5.3 9.7 3 9.8-3.8 11.6-6.1-4.5 3.6.7z" fill="#e4b3ab" stroke-width="none" opacity="1" stroke="none"></path></g></g><g id="svga-group-ears-right-move" transform="matrix(1,0,0,1,0,0)"><g id="svga-group-ears-right"><path id="SvgjsPath5684" d="m134.6 98.3 5.3-9.7 7-.9 2 7.2-.4 8.9-7 11.4-6.1 4.5-3.8-11.6z" fill="#f3d4cf" stroke-width="none" opacity="1" stroke="none"></path><path id="SvgjsPath5685" d="m140.6 101.2 4.1-9.8 1.9 5.1-.4 5-2.6 6.1 1.6-9.4-1.5-.7-1.3 10.8-2 2.1z" fill="#d4958a" stroke-width="none" opacity="1" stroke="none"></path><path id="SvgjsPath5686" d="m138.3 101 3.2-11.6 5.4-1.7-7 .9-5.3 9.7-3 9.8 3.8 11.6 6.1-4.5-3.6.7z" fill="#e4b3ab" stroke-width="none" opacity="1" stroke="none"></path></g></g><g id="svga-group-faceshape-wrap"><g id="svga-group-faceshape-single"><path id="SvgjsPath4717" d="M142 85c-.2-9.9-5.2-23.9-5.2-23.9-6.7-11.2-19-18.9-19-18.9-7-1.5-17.8-2.2-17.8-2.2s-10.8.8-17.8 2.2c0 0-12.4 7.6-19 18.9 0 0-5 14-5.2 23.9-.7 5.8 2.7 29.5 2.7 29.5 5.9 13 26.3 37 26.3 37 5.1 2.5 13 3.1 13 3.1s7.9-.6 13-3.1c0 0 20.3-24 26.3-37 0 0 3.3-23.7 2.7-29.5z" fill="#f3d4cf" stroke-width="none" opacity="1" stroke="none"></path><path id="SvgjsPath4718" d="M100.3 153.7c-.9-.2-10.6-3.2-11.1-3.9s-11.5-21-13.1-22.3c-1.6-1.4-11.8-15.7-11.8-15.7-.9-4.4-2.8-24.2-2.8-24.2-.2-9 4.8-25.1 4.8-25.1 3.2-5.5 17.5-17.3 17.5-17.3l15.9-3h18.1c-7-1.5-17.8-2.2-17.8-2.2s-10.8.8-17.8 2.2c0 0-12.4 7.6-19 18.9 0 0-5 14-5.2 23.9-.7 5.8 2.7 29.5 2.7 29.5 5.9 13 26.3 37 26.3 37 5.1 2.5 13 3.1 13 3.1s7.9-.6 13-3.1c.1 0-11.8 2.5-12.7 2.2z" fill="#d4958a" stroke-width="none" opacity="1" stroke="none"></path></g></g><g id="svga-group-mouth-single-move" transform="matrix(1,0,0,1,0,0)"><g id="svga-group-mouth-single"><path id="SvgjsPath5417" d="m87.06 129.72 8.35 5.42 10.61.06 7.84-5.34-12.92-.14-8.99-.19z" fill="#da7c87" stroke-width="none" opacity="1" transform="translate(0 3)" stroke="none"></path><path id="SvgjsPath5418" d="m85.79 129.82 10.42.48 4.25 2.03 3.67-2.22 11.01-.15-11.22-2.66-3.72 1.74-4.26-1.59z" fill="#cb5f6c" stroke-width="none" opacity="1" transform="translate(0 3)" stroke="none"></path><path id="SvgjsPath5419" d="m111.64 130.62-5.86 4.08-4.6.03 4.43-.38z" fill="#f9bfc6" stroke-width="none" opacity="1" transform="translate(0 3)" stroke="none"></path><path id="SvgjsPath5420" d="M100.51 129.4s3.35-1.68 3.47-1.68 5.44 1.41 5.44 1.41l-5.4-1.03-3.51 1.3z" fill="#e28c96" stroke-width="none" opacity="1" transform="translate(0 3)" stroke="none"></path></g></g><g id="svga-group-eyes-left-move" transform="matrix(1,0,0,1,0,0)"><g id="svga-group-eyes-left"><g id="svga-group-eyesback-left"><path id="SvgjsPath6061" d="m91.9 100.1-5.1-4.5-8.8.1-6.8 3.8s5.7 4.2 7 4.8l8.6-.4 5.1-3.8z" fill="#ffffff" stroke-width="none" opacity="1"></path></g><g id="svga-group-eyesiriswrapper-left" transform="matrix(1,0,0,1,0,0)"><g id="svga-group-eyesiriscontrol-left" transform="matrix(1,0,0,1,0,0)"><g id="svga-group-eyesiris-left"><path id="SvgjsPath6283" d="m80.1 103.9-2.4-1.7-.9-2.8.9-2.7 2.4-1.8H83l2.3 1.8.9 2.7-.9 2.8-2.3 1.7z" fill="#7b5c33" stroke-width="none" opacity="1" stroke="none"></path><path id="SvgjsPath6284" d="m82.9 95.2 2.2 1.6.8 2.6-.8 2.6-2.2 1.6h-2.8l-2.2-1.6-.8-2.6.8-2.6 2.2-1.6h2.8m.2-.5H80l-2.5 1.8-.9 2.9.9 2.9 2.5 1.8h3.1l2.5-1.8.9-2.9-.9-2.9-2.5-1.8z" fill="#5c3d14" stroke-width="none" opacity="1" stroke="none"></path><path id="SvgjsPath6285" d="M82.3 97.1h-1.5l-1.3.9-.4 1.4.4 1.5 1.3.9h1.5l1.2-.9.5-1.5-.5-1.4z" fill="#000000" stroke-width="none" opacity="1"></path><path id="SvgjsPath6286" d="m82.8 103.6.1-.7.8.2.1-.8.8.2s-.2-.7-.1-.7.7.1.7.1l-.4-.8.7-.2-.4-.8.8-.3-.6-.4.4-.6-.6-.3.3-.8-.6-.2.2-.7h-.5l-.1-.4h-.3l-.1-.5 1.2.6.7 1.7.4 1.4-.1.5-.7 2.3-1.8 1.4-.8.5-2.1-.2.4-.6.5.3.5-.4.6.2z" fill="#5c3d14" stroke-width="none" opacity="1" stroke="none"></path><path id="SvgjsPath6287" d="m77.8 100.6 1.1-.3v.2l-1.1.3v-.2zm.8-1.6c-.4-.1-.9-.1-1-.1v-.2s.1 0 1 .1v.2zm.5-2.6.1-.1.6.7-.1.1-.6-.7zm2-.6h.2v.8h-.2v-.8zm2.5 1.6.6-.6.1.1-.6.6-.1-.1zm.8 1.5.6-.1v.2h-.6v-.1zm-.2 1.5.1-.1.6.3-.1.1-.6-.3zm-1.3 1.4.1-.1.4.8-.1.1-.4-.8zm-2.9 1.3.4-1.1.2.1-.4 1.1-.2-.1zm-1-1.1.3-.4.1.1-.3.4-.1-.1z" fill="#5c3d14" stroke-width="none" opacity="1" stroke="none"></path><path id="SvgjsPath6288" d="m81.2 97.2-.9-.3-.7.7.2.8.9.3.7-.6z" fill="#ffffff" stroke-width="none" opacity="1"></path><path id="SvgjsPath6289" d="m83.1 101-.5-.3-.6.3v.6l.6.3.5-.3z" fill="#ffffff" stroke-width="none" opacity="1"></path></g></g></g><g id="svga-group-eyesfront-left"><path id="SvgjsPath6069" d="M67.97 94.46v11.11l7.69 7.86h10.87l7.69-7.86V94.46l-7.69-7.86H75.66l-7.69 7.86zm3.25 4.89 6.84-3.78 8.83-.05 5.05 4.54-5.05 3.78-8.62.36c-1.34-.66-7.05-4.85-7.05-4.85z" fill="#f3d4cf" stroke-width="none" opacity="1" stroke="none"></path><path id="SvgjsPath6070" d="m91.94 100.07-5.06-4.54-8.82.05-6.84 3.77-1.53.02-1.72-.76 3.63-.89 6.18-3.06 9.49.07 4.08 3.94z" fill="#d4958a" stroke-width="none" opacity="1" stroke="none"></path><path id="SvgjsPath6071" d="m72.17 100.51-1.61-1.16-1.86-1.34 2.64.92 1.57-.84a24 24 0 0 0-.61-.22l-1.15-1.38 1.95.99.63.16 1.62-.87-.64-.36-.73-1.15 1.38.99.6.19 1.37-.74-.55-.33-.46-.77.84.65.6.21.09-.05 9.11-.19 4.98 4.83-5.24-4.2h-8.66l-6.38 3.66 6.6 4.67 8.52-.52 3.96-2.69-3.77 3.08-8.76.39-.54-.35-.81.76.21-.42.39-.47-1-.65-.45.32-.71.54.35-.52.6-.49-.99-.64-.85.48-.89.64.66-.79.75-.53-1.12-.73-1.01.47-.85.5.58-.71.89-.5-.86-.56-.04-.03-.75.2-1.33.6.89-.71.84-.34z" fill="#000000" stroke-width="none" opacity="1" stroke="none"></path></g></g></g><g id="svga-group-eyes-right-move" transform="matrix(1,0,0,1,0,0)"><g id="svga-group-eyes-right"><g id="svga-group-eyesback-right"><path id="SvgjsPath6062" d="m108.1 100.1 5.1-4.5 8.8.1 6.8 3.8s-5.7 4.2-7 4.8l-8.6-.4-5.1-3.8z" fill="#ffffff" stroke-width="none" opacity="1"></path></g><g id="svga-group-eyesiriswrapper-right" transform="matrix(1,0,0,1,0,0)"><g id="svga-group-eyesiriscontrol-right" transform="matrix(1,0,0,1,0,0)"><g id="svga-group-eyesiris-right"><path id="SvgjsPath6290" d="m117 103.9-2.3-1.7-.9-2.8.9-2.7 2.3-1.8h2.9l2.4 1.8.9 2.7-.9 2.8-2.4 1.7z" fill="#7b5c33" stroke-width="none" opacity="1" stroke="none"></path><path id="SvgjsPath6291" d="m119.8 95.2 2.2 1.6.8 2.6-.8 2.6-2.2 1.6H117l-2.2-1.6-.8-2.6.8-2.6 2.2-1.6h2.8m.2-.5h-3.1l-2.5 1.8-.9 2.9.9 2.9 2.5 1.8h3.1l2.5-1.8.9-2.9-.9-2.9-2.5-1.8z" fill="#5c3d14" stroke-width="none" opacity="1" stroke="none"></path><path id="SvgjsPath6292" d="M119.2 97.1h-1.5l-1.2.9-.5 1.4.5 1.5 1.2.9h1.5l1.3-.9.4-1.5-.4-1.4z" fill="#000000" stroke-width="none" opacity="1"></path><path id="SvgjsPath6293" d="m119.7 103.6.1-.7.8.2.1-.8.8.2s-.2-.7-.1-.7.7.1.7.1l-.4-.8.7-.2-.4-.9.8-.3-.6-.4.4-.6-.6-.3.3-.8-.6-.2.2-.7h-.5l-.1-.4h-.3l-.1-.5 1.2.6.7 1.7.4 1.4-.1.5-.7 2.3-1.8 1.4-.8.5-2.1-.2.4-.6.5.3.5-.4.6.3z" fill="#5c3d14" stroke-width="none" opacity="1" stroke="none"></path><path id="SvgjsPath6294" d="m114.7 100.6 1.1-.3v.2l-1.1.3v-.2zm.8-1.6c-.4-.1-.9-.1-1-.1v-.2s.1 0 1 .1v.2zm.5-2.6.1-.1.6.7-.1.1-.6-.7zm2-.6h.2v.8h-.2v-.8zm2.5 1.6.6-.6.1.1-.6.6-.1-.1zm.8 1.5.6-.1v.2l-.6.1v-.2zm-.2 1.5.1-.1.6.3-.1.1-.6-.3zm-1.2 1.4.1-.1.4.8-.1.1-.4-.8zm-3 1.3.4-1.1.2.1-.4 1.1-.2-.1zm-1-1.1.3-.4.1.1-.3.4-.1-.1z" fill="#5c3d14" stroke-width="none" opacity="1" stroke="none"></path><path id="SvgjsPath6295" d="m118.1 97.2-.9-.3-.6.7.2.8.8.3.7-.6z" fill="#ffffff" stroke-width="none" opacity="1"></path><path id="SvgjsPath6296" d="m120 101-.5-.3-.5.3v.6l.5.3.5-.3z" fill="#ffffff" stroke-width="none" opacity="1"></path></g></g></g><g id="svga-group-eyesfront-right"><path id="SvgjsPath6072" d="M124.34 86.6h-10.87l-7.69 7.86v11.11l7.69 7.86h10.87l7.69-7.86V94.46l-7.69-7.86zm-2.6 17.6-8.62-.36-5.05-3.78 5.05-4.54 8.83.05 6.84 3.78c-.01 0-5.72 4.19-7.05 4.85z" fill="#f3d4cf" stroke-width="none" opacity="1" stroke="none"></path><path id="SvgjsPath6075" d="m108.06 100.07 5.06-4.54 8.82.05 6.84 3.77 1.53.02 1.72-.76-3.63-.89-6.18-3.06-9.49.07-4.08 3.94z" fill="#d4958a" stroke-width="none" opacity="1" stroke="none"></path><path id="SvgjsPath6076" d="m127.83 100.51 1.61-1.16 1.86-1.34-2.64.92-1.57-.84a24 24 0 0 1 .61-.22l1.15-1.38-1.95.99-.63.16-1.62-.87.64-.36.73-1.15-1.38.99-.6.19-1.37-.74.55-.33.46-.77-.84.65-.6.21-.09-.05-9.11-.19-4.98 4.83 5.24-4.2h8.66l6.38 3.66-6.6 4.67-8.52-.52-3.96-2.69 3.77 3.08 8.76.39.54-.35.81.76-.21-.42-.39-.47 1-.65.45.32.71.54-.35-.52-.6-.49.99-.64.86.46.89.64-.66-.79-.75-.53 1.12-.73 1.01.47.85.5-.58-.71-.89-.5.86-.56.04-.03.75.2 1.33.6-.89-.71-.85-.32z" fill="#000000" stroke-width="none" opacity="1" stroke="none"></path></g></g></g><g id="svga-group-facehighlight-single"></g><g id="svga-group-eyebrows-left-move" transform="matrix(1,0,0,1,0,0)"><g id="svga-group-eyebrows-left-rotate" transform="matrix(1,1.7453292519943295e-9,-1.7453292519943295e-9,1,1.5158184396568686e-7,-1.3953906830010965e-7)"><g id="svga-group-eyebrows-left"><path id="SvgjsPath6670" d="m92.2 87.2-1.7 3.5-14.6-4.1-8.2 2 5.9-5 3-.6z" fill="#543c32" stroke-width="none" opacity="1" stroke="none"></path><path id="SvgjsPath6671" d="m85.7 85.5 1.4.4.5 2.6-1.9-3zM76.6 83l3 3.6-4.3-3.4 1.3-.2zm6.4 1.7 1 3.1-2.6-3.5 1.6.4zm-12 1.1h1.9l-2.6.6.7-.6zm13.9-.6.2 1.1-1.2-1.3 1 .2zm-11.3-1.6 2.6 1.4-3.2-.8.6-.6zm15.7 2.8.5 3.1-2.3-3.5 1.8.4z" fill="#634e45" stroke-width="none" opacity="1" stroke="none"></path></g></g></g><g id="svga-group-eyebrows-right-move" transform="matrix(1,0,0,1,0,0)"><g id="svga-group-eyebrows-right-rotate" transform="matrix(1,1.7453292519943295e-9,-1.7453292519943295e-9,1,1.5158184396568686e-7,-2.0952678880803433e-7)"><g id="svga-group-eyebrows-right"><path id="SvgjsPath6672" d="m107.8 87.2 1.7 3.5 14.6-4.1 8.2 2-5.9-5-3-.6z" fill="#543c32" stroke-width="none" opacity="1" stroke="none"></path><path id="SvgjsPath6673" d="m114.3 85.5-1.4.4-.5 2.6 1.9-3zm9.1-2.5-3 3.6 4.3-3.4-1.3-.2zm-6.4 1.7-1 3.1 2.6-3.5-1.6.4zm12 1.1h-1.9l2.6.6-.7-.6zm-13.9-.6-.2 1.1 1.1-1.4-.9.3zm11.3-1.6-2.6 1.4 3.2-.8-.6-.6zm-15.7 2.8-.5 3.1 2.3-3.5-1.8.4z" fill="#634e45" stroke-width="none" opacity="1" stroke="none"></path></g></g></g><g id="svga-group-nose-single-move" transform="matrix(1,0,0,1,0,0)"><g id="svga-group-nose-single"><path id="SvgjsPath5096" d="m97.84 96.62-2.05 5.46.9 5.66-1.35 4.37h2.83l1.99-1.35-2.44.58-1.16-.19 1.03-3.93-1.16-5.46 1.61-4.24z" fill="#d4958a" stroke-width="none" opacity="1" transform="translate(0 2)" stroke="none"></path><path id="SvgjsPath5097" d="m108.98 115.84-3.07-3.47.26.96 2.11 2.57-.26 3.15-2.88.84.26-.71 1.86-.71.19-.51-2.56.26-3.01 4.24-1.86.32-1.76-.32-3.01-4.24-2.56-.26.19.51 1.86.71.26.71-2.88-.84-.26-3.15 2.11-2.57.26-.96-3.07 3.47s-.19 3.79.06 3.79c.26 0 5.06 1.22 5.06 1.22l1.73 2.51 2.02.26 2.11-.26 1.73-2.51s4.8-1.22 5.06-1.22c.24 0 .05-3.79.05-3.79z" fill="#d4958a" stroke-width="none" opacity="1" transform="translate(0 2)" stroke="none"></path><path id="SvgjsPath5098" d="m102.26 96.76 2.05 5.13-.86 3.36.13-3.88z" fill="#d4958a" stroke-width="none" opacity="1" transform="translate(0 2)" stroke="none"></path><path id="SvgjsPath5099" d="M97.11 113H104l3.09 2.97-4.51-.12-1.78 2.14-3.69-4.99z" fill="#fbe5e2" stroke-width="none" opacity="1" transform="translate(0 2)" stroke="none"></path></g></g><g id="svga-group-hair-front"><path id="SvgjsPath7430" d="m61 98.6-3.7-10.1.2-15.8L63.8 57l14.7-14.5 20.6-4.3 19.7 3 14.7 11.5 6.7 10.8 3.4 16.9.6 8.3-3.6 10.1-5.5-21.6L122.5 61l-23.4-6.1-21 6.9-11.5 16.3z" fill="#543c32" stroke-width="none" opacity="1" stroke="none"></path><path id="SvgjsPath7431" d="m118.8 41.2-3.8-.6-.6-.1-15.3-2.4-1.4.3-.3.1L80.7 42h-.1l-2 .4L63.8 57l-6.3 15.6-.2 15.8L61 98.6l5.7-20.5 11.5-16.3.2-.1-.8-4.2v-11l4-1.2 2.7 9.5 2.1 4.2.6-.2-2.7-11.5-1.6-2.3L97 40.8l-1.3 7.1.7 7.8 1.1-.4.9-7.2-.3-7.7h.1l11.5.5-2.1 6.4-1.4 9.3h.2l2.1-6.6 1.5-9 4.2.2-2.9 7.5-1.8 8.8.8.2 3.8-7.1 1-9.4 4.2.2-.5-.2zm21.4 22.4-5.7 2-6.3 2.7.3.3 6.3-1.7 5.6-2.8-.2-.5zm-2.8-4.6-.4-.6-5.7 2.7-5.8 3.8.3.4 5.5-2.1 6.1-4.2zm-16.2-6.8-2 7.9.9.2 3-4.9 2.4-9.1-.7-.5-3.6 6.4z" fill="#5c453b" stroke-width="none" opacity="1" stroke="none"></path></g><g id="svga-group-glasses-single-move" transform="matrix(1,0,0,1,0,0)"><g id="svga-group-glasses-single"></g></g></g></g></g><rect id="svga-credit-rect" width="200" height="15" x="0" y="185" fill="#ecf0f1" opacity="0.5" style="display: none;"></rect><text id="svga-credit-text" font-family="Avenir Next, Roboto, Helvetica, Arial, sans-serif" font-size="10px" text-anchor="start" font-weight="400" size="10px" anchor="start" weight="400" fill="#333333" x="33.40447998046875" y="182.60824704170227" style="display: none;"><tspan id="SvgjsTspan4450" dy="13" x="33.40447998046875">Created on AvatarMaker.com</tspan></text></g><defs id="SvgjsDefs4402"></defs></svg>