<svg width="70" height="42" viewBox="0 0 70 42" fill="#FFF" xmlns="http://www.w3.org/2000/svg">
<path d="M22.3682 42.0002C19.4322 42.0002 16.6842 40.2092 15.5832 37.3252L8.53222 18.8802L3.57522 15.5332C0.251224 13.2862 -0.623775 8.77022 1.62222 5.44522C3.86622 2.12222 8.38223 1.24422 11.7122 3.49422L18.5662 8.12422C19.8022 8.96022 20.7542 10.1562 21.2852 11.5512L26.7052 25.7192L35.6412 22.8602C39.4612 21.6392 43.5532 23.7462 44.7722 27.5692C45.9952 31.3922 43.8872 35.4812 40.0672 36.7022L24.5832 41.6532C23.8492 41.8862 23.1022 42.0002 22.3682 42.0002Z" fill="#FFF"/>
<path d="M62.7272 40.6052C61.3272 40.6052 59.9132 40.2002 58.6642 39.3562L51.8102 34.7252C50.5742 33.8892 49.6262 32.6942 49.0912 31.2992L43.6732 17.1312L34.7392 19.9872C30.9152 21.2102 26.8272 19.1042 25.6042 15.2792C24.3812 11.4582 26.4892 7.36919 30.3132 6.14619L45.7932 1.19719C49.4592 0.0211855 53.4142 1.92019 54.7912 5.52219L61.8442 23.9662L66.8012 27.3132C70.1232 29.5602 70.9982 34.0772 68.7502 37.4022C67.3512 39.4812 65.0602 40.6052 62.7272 40.6052Z" fill="#FFF"/>
</svg>
